<?xml version="1.0" encoding="utf-8"?>
<!-- Generator: Adobe Illustrator 25.2.1, SVG Export Plug-In . SVG Version: 6.00 Build 0)  -->
<svg version="1.1" id="Layer_1" xmlns="http://www.w3.org/2000/svg" xmlns:xlink="http://www.w3.org/1999/xlink" x="0px" y="0px"
	 viewBox="0 0 1920 1079" style="enable-background:new 0 0 1920 1079;" xml:space="preserve">
<style type="text/css">
	.st0{fill:#FFF5BD;}
</style>
<path class="st0" d="M581,380.5c29.1,143.39-9.11,363.25-178,448.5C208.31,927.27-1.35,765.87-10,759
	c-147.63-117.28-162.61-292.16-170-378.5C-183.83,335.73-209.59,46.1-55-29c82.33-40,173.28-3.76,255.5,29
	C271.21,28.17,530.47,131.47,581,380.5z"/>
<path class="st0" d="M1105,1047c-3.93,171.8-245.67,266.66-297.5,287C420.66,1485.8-50.77,1234.61-38,1138
	c7.18-54.33,161.65-15.68,418.65-140.87C629.26,876.03,665.45,751.81,807.5,760C951.15,768.28,1108.21,906.51,1105,1047z"/>
</svg>
